# xmcd CD database file
#
# Track frame offsets:
#	150
#	18280
#	30356
#	52232
#	61267
#	75166
#	99126
#	114503
#	126459
#	138779
#	154878
#	170898
#	186962
#	196369
#
# Disc length: 2779 seconds
#
# Revision: 0
# Processed by: cddbd v1.5.2PL0 Copyright (c) Steve Scherf et al.
# Submitted via: CDex 1.51
#
DISCID=b40ad90e
DTITLE=Grace Knight - Willow
DYEAR=2008
DGENRE=Jazz
TTITLE0=Crazy He Calls Me
TTITLE1=Soft Winds Whisper
TTITLE2=Willow Weep For Me
TTITLE3=Do Right
TTITLE4=Sometimes I Feel Like a Motherless Child
TTITLE5=Spring Can Really Hang You Up The Most
TTITLE6=Blues In The Night
TTITLE7=You'd Be So Nice To Come Home To
TTITLE8=Sway
TTITLE9=You're My Thrill
TTITLE10=Go Slow
TTITLE11=Mad About The Boy
TTITLE12=What'll I Do
TTITLE13=Do It Again
EXTD=YEAR: 2008
EXTT0=
EXTT1=
EXTT2=
EXTT3=
EXTT4=
EXTT5=
EXTT6=
EXTT7=
EXTT8=
EXTT9=
EXTT10=
EXTT11=
EXTT12=
EXTT13=
PLAYORDER=
